<svg width="62" height="44" viewBox="0 0 62 44" fill="none" xmlns="http://www.w3.org/2000/svg">
<path d="M0.935696 1.828C1.45247 1.828 1.87139 1.41878 1.87139 0.913998C1.87139 0.409211 1.45247 0 0.935696 0C0.418925 0 0 0.409211 0 0.913998C0 1.41878 0.418925 1.828 0.935696 1.828Z" fill="white"/>
<path d="M2.80684 7.88205C3.90497 7.88205 4.79519 7.01248 4.79519 5.9398C4.79519 4.86713 3.90497 3.99756 2.80684 3.99756C1.7087 3.99756 0.818481 4.86713 0.818481 5.9398C0.818481 7.01248 1.7087 7.88205 2.80684 7.88205Z" fill="white"/>
<path d="M5.14558 12.9101C6.24372 12.9101 7.13393 12.0406 7.13393 10.9679C7.13393 9.89521 6.24372 9.02563 5.14558 9.02563C4.04744 9.02563 3.15723 9.89521 3.15723 10.9679C3.15723 12.0406 4.04744 12.9101 5.14558 12.9101Z" fill="white"/>
<path d="M7.71904 17.2511C8.30041 17.2511 8.7717 16.7907 8.7717 16.2228C8.7717 15.6549 8.30041 15.1946 7.71904 15.1946C7.13767 15.1946 6.66638 15.6549 6.66638 16.2228C6.66638 16.7907 7.13767 17.2511 7.71904 17.2511Z" fill="white"/>
<path d="M10.9951 22.963C11.641 22.963 12.1647 22.4515 12.1647 21.8205C12.1647 21.1895 11.641 20.678 10.9951 20.678C10.3491 20.678 9.82544 21.1895 9.82544 21.8205C9.82544 22.4515 10.3491 22.963 10.9951 22.963Z" fill="white"/>
<path d="M14.9721 30.1627C16.3932 30.1627 17.5453 29.0374 17.5453 27.6492C17.5453 26.2611 16.3932 25.1357 14.9721 25.1357C13.551 25.1357 12.3989 26.2611 12.3989 27.6492C12.3989 29.0374 13.551 30.1627 14.9721 30.1627Z" fill="white"/>
<path d="M19.4139 35.3032C20.2537 35.3032 20.9344 34.6383 20.9344 33.818C20.9344 32.9977 20.2537 32.3328 19.4139 32.3328C18.5742 32.3328 17.8934 32.9977 17.8934 33.818C17.8934 34.6383 18.5742 35.3032 19.4139 35.3032Z" fill="white"/>
<path d="M24.5619 43.8713C26.5643 43.8713 28.1877 42.2856 28.1877 40.3296C28.1877 38.3735 26.5643 36.7878 24.5619 36.7878C22.5594 36.7878 20.936 38.3735 20.936 40.3296C20.936 42.2856 22.5594 43.8713 24.5619 43.8713Z" fill="white"/>
<path d="M8.42007 2.51354C8.93684 2.51354 9.35577 2.10433 9.35577 1.59954C9.35577 1.09476 8.93684 0.685547 8.42007 0.685547C7.9033 0.685547 7.48438 1.09476 7.48438 1.59954C7.48438 2.10433 7.9033 2.51354 8.42007 2.51354Z" fill="white"/>
<path d="M9.94082 6.85363C10.4576 6.85363 10.8765 6.44442 10.8765 5.93963C10.8765 5.43485 10.4576 5.02563 9.94082 5.02563C9.42405 5.02563 9.00513 5.43485 9.00513 5.93963C9.00513 6.44442 9.42405 6.85363 9.94082 6.85363Z" fill="white"/>
<path d="M11.8138 12.2243C12.9119 12.2243 13.8021 11.3548 13.8021 10.2821C13.8021 9.20942 12.9119 8.33984 11.8138 8.33984C10.7157 8.33984 9.82544 9.20942 9.82544 10.2821C9.82544 11.3548 10.7157 12.2243 11.8138 12.2243Z" fill="white"/>
<path d="M14.2697 15.995C14.7865 15.995 15.2054 15.5858 15.2054 15.081C15.2054 14.5762 14.7865 14.167 14.2697 14.167C13.7529 14.167 13.334 14.5762 13.334 15.081C13.334 15.5858 13.7529 15.995 14.2697 15.995Z" fill="white"/>
<path d="M17.3102 22.1647C18.4729 22.1647 19.4155 21.244 19.4155 20.1083C19.4155 18.9725 18.4729 18.0518 17.3102 18.0518C16.1474 18.0518 15.2048 18.9725 15.2048 20.1083C15.2048 21.244 16.1474 22.1647 17.3102 22.1647Z" fill="white"/>
<path d="M20.9357 27.6479C22.2276 27.6479 23.2749 26.6248 23.2749 25.3629C23.2749 24.1009 22.2276 23.0779 20.9357 23.0779C19.6437 23.0779 18.5964 24.1009 18.5964 25.3629C18.5964 26.6248 19.6437 27.6479 20.9357 27.6479Z" fill="white"/>
<path d="M25.3797 32.1046C26.0903 32.1046 26.6663 31.5419 26.6663 30.8478C26.6663 30.1537 26.0903 29.5911 25.3797 29.5911C24.6692 29.5911 24.0931 30.1537 24.0931 30.8478C24.0931 31.5419 24.6692 32.1046 25.3797 32.1046Z" fill="white"/>
<path d="M31.1109 39.5298C32.855 39.5298 34.2688 38.1488 34.2688 36.4451C34.2688 34.7414 32.855 33.3604 31.1109 33.3604C29.3668 33.3604 27.9529 34.7414 27.9529 36.4451C27.9529 38.1488 29.3668 39.5298 31.1109 39.5298Z" fill="white"/>
<path d="M15.2056 2.97059C15.6577 2.97059 16.0243 2.61253 16.0243 2.17084C16.0243 1.72915 15.6577 1.37109 15.2056 1.37109C14.7534 1.37109 14.3868 1.72915 14.3868 2.17084C14.3868 2.61253 14.7534 2.97059 15.2056 2.97059Z" fill="white"/>
<path d="M16.6078 7.5403C17.5122 7.5403 18.2453 6.82418 18.2453 5.9408C18.2453 5.05743 17.5122 4.34131 16.6078 4.34131C15.7035 4.34131 14.9703 5.05743 14.9703 5.9408C14.9703 6.82418 15.7035 7.5403 16.6078 7.5403Z" fill="white"/>
<path d="M18.2461 11.5388C19.2151 11.5388 20.0006 10.7715 20.0006 9.82507C20.0006 8.8786 19.2151 8.11133 18.2461 8.11133C17.2772 8.11133 16.4917 8.8786 16.4917 9.82507C16.4917 10.7715 17.2772 11.5388 18.2461 11.5388Z" fill="white"/>
<path d="M20.4693 15.0804C20.986 15.0804 21.405 14.6712 21.405 14.1664C21.405 13.6617 20.986 13.2524 20.4693 13.2524C19.9525 13.2524 19.5336 13.6617 19.5336 14.1664C19.5336 14.6712 19.9525 15.0804 20.4693 15.0804Z" fill="white"/>
<path d="M23.3922 19.536C23.909 19.536 24.3279 19.1268 24.3279 18.622C24.3279 18.1172 23.909 17.708 23.3922 17.708C22.8755 17.708 22.4565 18.1172 22.4565 18.622C22.4565 19.1268 22.8755 19.536 23.3922 19.536Z" fill="white"/>
<path d="M26.901 25.3635C28.0637 25.3635 29.0063 24.4428 29.0063 23.307C29.0063 22.1712 28.0637 21.2505 26.901 21.2505C25.7382 21.2505 24.7957 22.1712 24.7957 23.307C24.7957 24.4428 25.7382 25.3635 26.901 25.3635Z" fill="white"/>
<path d="M31.3446 30.5026C32.6365 30.5026 33.6838 29.4796 33.6838 28.2176C33.6838 26.9556 32.6365 25.9326 31.3446 25.9326C30.0527 25.9326 29.0054 26.9556 29.0054 28.2176C29.0054 29.4796 30.0527 30.5026 31.3446 30.5026Z" fill="white"/>
<path d="M36.7258 35.8741C38.2115 35.8741 39.4159 34.6977 39.4159 33.2464C39.4159 31.7951 38.2115 30.6187 36.7258 30.6187C35.2401 30.6187 34.0356 31.7951 34.0356 33.2464C34.0356 34.6977 35.2401 35.8741 36.7258 35.8741Z" fill="white"/>
<path d="M42.2226 32.6757C43.5791 32.6757 44.6788 31.6015 44.6788 30.2764C44.6788 28.9514 43.5791 27.8772 42.2226 27.8772C40.866 27.8772 39.7664 28.9514 39.7664 30.2764C39.7664 31.6015 40.866 32.6757 42.2226 32.6757Z" fill="white"/>
<path d="M37.076 28.1052C38.2388 28.1052 39.1813 27.1844 39.1813 26.0487C39.1813 24.9129 38.2388 23.9922 37.076 23.9922C35.9133 23.9922 34.9707 24.9129 34.9707 26.0487C34.9707 27.1844 35.9133 28.1052 37.076 28.1052Z" fill="white"/>
<path d="M32.7496 23.4216C33.7831 23.4216 34.621 22.6032 34.621 21.5936C34.621 20.584 33.7831 19.7656 32.7496 19.7656C31.716 19.7656 30.8782 20.584 30.8782 21.5936C30.8782 22.6032 31.716 23.4216 32.7496 23.4216Z" fill="white"/>
<path d="M29.3578 19.3081C30.3914 19.3081 31.2292 18.4897 31.2292 17.4801C31.2292 16.4705 30.3914 15.6521 29.3578 15.6521C28.3243 15.6521 27.4865 16.4705 27.4865 17.4801C27.4865 18.4897 28.3243 19.3081 29.3578 19.3081Z" fill="white"/>
<path d="M26.5516 14.2811C27.0038 14.2811 27.3704 13.9231 27.3704 13.4814C27.3704 13.0397 27.0038 12.6816 26.5516 12.6816C26.0995 12.6816 25.7329 13.0397 25.7329 13.4814C25.7329 13.9231 26.0995 14.2811 26.5516 14.2811Z" fill="white"/>
<path d="M24.3285 11.0818C25.1682 11.0818 25.849 10.4169 25.849 9.59657C25.849 8.7763 25.1682 8.11133 24.3285 8.11133C23.4887 8.11133 22.808 8.7763 22.808 9.59657C22.808 10.4169 23.4887 11.0818 24.3285 11.0818Z" fill="white"/>
<path d="M22.6906 7.65408C23.5303 7.65408 24.2111 6.98912 24.2111 6.16884C24.2111 5.34856 23.5303 4.68359 22.6906 4.68359C21.8508 4.68359 21.17 5.34856 21.17 6.16884C21.17 6.98912 21.8508 7.65408 22.6906 7.65408Z" fill="white"/>
<path d="M21.2875 3.31289C21.675 3.31289 21.9892 3.00598 21.9892 2.62739C21.9892 2.2488 21.675 1.94189 21.2875 1.94189C20.8999 1.94189 20.5857 2.2488 20.5857 2.62739C20.5857 3.00598 20.8999 3.31289 21.2875 3.31289Z" fill="white"/>
<path d="M26.784 3.77017C27.1716 3.77017 27.4858 3.46326 27.4858 3.08467C27.4858 2.70608 27.1716 2.39917 26.784 2.39917C26.3965 2.39917 26.0823 2.70608 26.0823 3.08467C26.0823 3.46326 26.3965 3.77017 26.784 3.77017Z" fill="white"/>
<path d="M28.3043 7.54082C29.0795 7.54082 29.7078 6.92701 29.7078 6.16982C29.7078 5.41264 29.0795 4.79883 28.3043 4.79883C27.5291 4.79883 26.9008 5.41264 26.9008 6.16982C26.9008 6.92701 27.5291 7.54082 28.3043 7.54082Z" fill="white"/>
<path d="M29.9426 10.8533C30.7178 10.8533 31.3462 10.2395 31.3462 9.48232C31.3462 8.72514 30.7178 8.11133 29.9426 8.11133C29.1675 8.11133 28.5391 8.72514 28.5391 9.48232C28.5391 10.2395 29.1675 10.8533 29.9426 10.8533Z" fill="white"/>
<path d="M32.1642 14.3955C33.0039 14.3955 33.6847 13.7306 33.6847 12.9103C33.6847 12.09 33.0039 11.425 32.1642 11.425C31.3244 11.425 30.6437 12.09 30.6437 12.9103C30.6437 13.7306 31.3244 14.3955 32.1642 14.3955Z" fill="white"/>
<path d="M34.8544 17.3654C35.3065 17.3654 35.6731 17.0073 35.6731 16.5656C35.6731 16.1239 35.3065 15.7659 34.8544 15.7659C34.4022 15.7659 34.0356 16.1239 34.0356 16.5656C34.0356 17.0073 34.4022 17.3654 34.8544 17.3654Z" fill="white"/>
<path d="M38.3635 21.7061C39.2679 21.7061 40.001 20.99 40.001 20.1066C40.001 19.2232 39.2679 18.5071 38.3635 18.5071C37.4592 18.5071 36.7261 19.2232 36.7261 20.1066C36.7261 20.99 37.4592 21.7061 38.3635 21.7061Z" fill="white"/>
<path d="M42.5727 25.9343C43.6708 25.9343 44.5611 25.0647 44.5611 23.992C44.5611 22.9194 43.6708 22.0498 42.5727 22.0498C41.4746 22.0498 40.5844 22.9194 40.5844 23.992C40.5844 25.0647 41.4746 25.9343 42.5727 25.9343Z" fill="white"/>
<path d="M47.4875 28.9059C48.0688 28.9059 48.5401 28.4455 48.5401 27.8776C48.5401 27.3097 48.0688 26.8494 47.4875 26.8494C46.9061 26.8494 46.4348 27.3097 46.4348 27.8776C46.4348 28.4455 46.9061 28.9059 47.4875 28.9059Z" fill="white"/>
<path d="M47.4859 24.2207C48.4548 24.2207 49.2403 23.4534 49.2403 22.507C49.2403 21.5605 48.4548 20.7932 47.4859 20.7932C46.5169 20.7932 45.7314 21.5605 45.7314 22.507C45.7314 23.4534 46.5169 24.2207 47.4859 24.2207Z" fill="white"/>
<path d="M52.2809 26.6195C52.7977 26.6195 53.2166 26.2103 53.2166 25.7055C53.2166 25.2007 52.7977 24.7915 52.2809 24.7915C51.7641 24.7915 51.3452 25.2007 51.3452 25.7055C51.3452 26.2103 51.7641 26.6195 52.2809 26.6195Z" fill="white"/>
<path d="M43.3932 20.6782C44.2976 20.6782 45.0307 19.9621 45.0307 19.0787C45.0307 18.1954 44.2976 17.4792 43.3932 17.4792C42.4889 17.4792 41.7557 18.1954 41.7557 19.0787C41.7557 19.9621 42.4889 20.6782 43.3932 20.6782Z" fill="white"/>
<path d="M40 17.2508C40.8397 17.2508 41.5205 16.5858 41.5205 15.7655C41.5205 14.9452 40.8397 14.2803 40 14.2803C39.1602 14.2803 38.4795 14.9452 38.4795 15.7655C38.4795 16.5858 39.1602 17.2508 40 17.2508Z" fill="white"/>
<path d="M37.311 13.1381C37.6986 13.1381 38.0128 12.8312 38.0128 12.4526C38.0128 12.074 37.6986 11.7671 37.311 11.7671C36.9234 11.7671 36.6093 12.074 36.6093 12.4526C36.6093 12.8312 36.9234 13.1381 37.311 13.1381Z" fill="white"/>
<path d="M35.088 10.7396C35.8631 10.7396 36.4915 10.1257 36.4915 9.36855C36.4915 8.61137 35.8631 7.99756 35.088 7.99756C34.3128 7.99756 33.6844 8.61137 33.6844 9.36855C33.6844 10.1257 34.3128 10.7396 35.088 10.7396Z" fill="white"/>
<path d="M33.3336 7.1979C33.7212 7.1979 34.0354 6.89099 34.0354 6.5124C34.0354 6.13381 33.7212 5.8269 33.3336 5.8269C32.946 5.8269 32.6318 6.13381 32.6318 6.5124C32.6318 6.89099 32.946 7.1979 33.3336 7.1979Z" fill="white"/>
<path d="M31.8143 4.22744C32.2019 4.22744 32.5161 3.92053 32.5161 3.54194C32.5161 3.16335 32.2019 2.85645 31.8143 2.85645C31.4267 2.85645 31.1125 3.16335 31.1125 3.54194C31.1125 3.92053 31.4267 4.22744 31.8143 4.22744Z" fill="white"/>
<path d="M36.3169 4.51187C36.6722 4.51187 36.9602 4.23054 36.9602 3.8835C36.9602 3.53646 36.6722 3.25513 36.3169 3.25513C35.9616 3.25513 35.6736 3.53646 35.6736 3.8835C35.6736 4.23054 35.9616 4.51187 36.3169 4.51187Z" fill="white"/>
<path d="M37.8958 7.88288C38.6064 7.88288 39.1824 7.32021 39.1824 6.62613C39.1824 5.93205 38.6064 5.36938 37.8958 5.36938C37.1853 5.36938 36.6093 5.93205 36.6093 6.62613C36.6093 7.32021 37.1853 7.88288 37.8958 7.88288Z" fill="white"/>
<path d="M39.7661 10.6248C40.4766 10.6248 41.0527 10.0622 41.0527 9.36808C41.0527 8.67399 40.4766 8.11133 39.7661 8.11133C39.0555 8.11133 38.4795 8.67399 38.4795 9.36808C38.4795 10.0622 39.0555 10.6248 39.7661 10.6248Z" fill="white"/>
<path d="M41.9902 13.3665C42.7008 13.3665 43.2768 12.8039 43.2768 12.1098C43.2768 11.4157 42.7008 10.853 41.9902 10.853C41.2796 10.853 40.7036 11.4157 40.7036 12.1098C40.7036 12.8039 41.2796 13.3665 41.9902 13.3665Z" fill="white"/>
<path d="M44.6798 15.88C45.0674 15.88 45.3816 15.5731 45.3816 15.1945C45.3816 14.8159 45.0674 14.509 44.6798 14.509C44.2922 14.509 43.978 14.8159 43.978 15.1945C43.978 15.5731 44.2922 15.88 44.6798 15.88Z" fill="white"/>
<path d="M47.9553 19.6504C48.7951 19.6504 49.4758 18.9855 49.4758 18.1652C49.4758 17.3449 48.7951 16.6799 47.9553 16.6799C47.1156 16.6799 46.4348 17.3449 46.4348 18.1652C46.4348 18.9855 47.1156 19.6504 47.9553 19.6504Z" fill="white"/>
<path d="M51.8124 21.8224C52.2646 21.8224 52.6311 21.4643 52.6311 21.0226C52.6311 20.581 52.2646 20.2229 51.8124 20.2229C51.3602 20.2229 50.9937 20.581 50.9937 21.0226C50.9937 21.4643 51.3602 21.8224 51.8124 21.8224Z" fill="white"/>
<path d="M56.491 25.8193C57.5246 25.8193 58.3624 25.0009 58.3624 23.9913C58.3624 22.9818 57.5246 22.1633 56.491 22.1633C55.4575 22.1633 54.6196 22.9818 54.6196 23.9913C54.6196 25.0009 55.4575 25.8193 56.491 25.8193Z" fill="white"/>
<path d="M60.3532 23.3073C60.8053 23.3073 61.1719 22.9492 61.1719 22.5075C61.1719 22.0658 60.8053 21.7078 60.3532 21.7078C59.901 21.7078 59.5344 22.0658 59.5344 22.5075C59.5344 22.9492 59.901 23.3073 60.3532 23.3073Z" fill="white"/>
<path d="M55.6753 21.4776C56.515 21.4776 57.1958 20.8126 57.1958 19.9923C57.1958 19.172 56.515 18.5071 55.6753 18.5071C54.8355 18.5071 54.1548 19.172 54.1548 19.9923C54.1548 20.8126 54.8355 21.4776 55.6753 21.4776Z" fill="white"/>
<path d="M51.8146 17.9357C52.2021 17.9357 52.5163 17.6288 52.5163 17.2502C52.5163 16.8716 52.2021 16.5647 51.8146 16.5647C51.427 16.5647 51.1128 16.8716 51.1128 17.2502C51.1128 17.6288 51.427 17.9357 51.8146 17.9357Z" fill="white"/>
<path d="M48.6543 15.7659C49.3648 15.7659 49.9408 15.2033 49.9408 14.5092C49.9408 13.8151 49.3648 13.2524 48.6543 13.2524C47.9437 13.2524 47.3677 13.8151 47.3677 14.5092C47.3677 15.2033 47.9437 15.7659 48.6543 15.7659Z" fill="white"/>
<path d="M45.9653 13.1375C46.6759 13.1375 47.2519 12.5749 47.2519 11.8808C47.2519 11.1867 46.6759 10.624 45.9653 10.624C45.2547 10.624 44.6787 11.1867 44.6787 11.8808C44.6787 12.5749 45.2547 13.1375 45.9653 13.1375Z" fill="white"/>
<path d="M43.7438 10.3963C44.3898 10.3963 44.9135 9.88481 44.9135 9.25383C44.9135 8.62284 44.3898 8.11133 43.7438 8.11133C43.0979 8.11133 42.5742 8.62284 42.5742 9.25383C42.5742 9.88481 43.0979 10.3963 43.7438 10.3963Z" fill="white"/>
<path d="M41.9904 7.76961C42.6364 7.76961 43.16 7.2581 43.16 6.62712C43.16 5.99613 42.6364 5.48462 41.9904 5.48462C41.3445 5.48462 40.8208 5.99613 40.8208 6.62712C40.8208 7.2581 41.3445 7.76961 41.9904 7.76961Z" fill="white"/>
<path d="M40.2358 4.68303C40.5588 4.68303 40.8206 4.42727 40.8206 4.11178C40.8206 3.79628 40.5588 3.54053 40.2358 3.54053C39.9128 3.54053 39.651 3.79628 39.651 4.11178C39.651 4.42727 39.9128 4.68303 40.2358 4.68303Z" fill="white"/>
</svg>
