<svg width="249" height="48" viewBox="0 0 249 48" fill="none" xmlns="http://www.w3.org/2000/svg">
<path d="M18.8363 1.01817C18.8363 1.01817 27.709 7.41817 42.109 0.290894C42.109 9.16362 42.109 36.2182 42.109 36.2182C42.109 36.2182 31.0545 42.4727 18.8363 35.6363C18.8363 23.1273 18.8363 1.01817 18.8363 1.01817Z" fill="#561CA0"/>
<path opacity="0.8" d="M12.3636 0.654541C12.3636 0.654541 15.6364 12.0727 35.7818 7.92727C35.7818 20.6545 35.7818 42.1091 35.7818 42.1091C35.7818 42.1091 18.3273 46.3273 12.3636 35.2727C12.3636 22.9091 12.3636 0.654541 12.3636 0.654541Z" fill="#6534DB"/>
<path opacity="0.8" d="M5.96362 1.23633C5.96362 1.23633 8.43635 15.4909 29.3818 15.3454C29.3818 28 29.3818 47.6363 29.3818 47.6363C29.3818 47.6363 10.1818 49.0909 5.96362 33.6727C5.96362 18.4 5.96362 1.23633 5.96362 1.23633Z" fill="#9327E8"/>
<path d="M60.544 17.536C60.2027 17.7813 59.7653 17.9573 59.232 18.064C58.7093 18.1707 58.1707 18.224 57.616 18.224C56.944 18.224 56.304 18.1227 55.696 17.92C55.0987 17.7067 54.5707 17.3707 54.112 16.912C53.6533 16.4427 53.2853 15.84 53.008 15.104C52.7413 14.3573 52.608 13.456 52.608 12.4C52.608 11.3013 52.7573 10.384 53.056 9.648C53.3653 8.90133 53.76 8.304 54.24 7.856C54.7307 7.39733 55.2747 7.072 55.872 6.88C56.4693 6.67733 57.0667 6.576 57.664 6.576C58.304 6.576 58.8427 6.61867 59.28 6.704C59.728 6.78933 60.096 6.89067 60.384 7.008L59.952 8.864C59.7067 8.74667 59.4133 8.66133 59.072 8.608C58.7413 8.55467 58.336 8.528 57.856 8.528C56.9707 8.528 56.256 8.84267 55.712 9.472C55.1787 10.1013 54.912 11.0773 54.912 12.4C54.912 12.976 54.976 13.504 55.104 13.984C55.232 14.4533 55.424 14.8587 55.68 15.2C55.9467 15.5307 56.272 15.792 56.656 15.984C57.0507 16.1653 57.504 16.256 58.016 16.256C58.496 16.256 58.9013 16.208 59.232 16.112C59.5627 16.016 59.8507 15.8933 60.096 15.744L60.544 17.536ZM68.4255 11.792L68.5535 10.336H68.4735L67.7215 11.84L63.5455 18H61.8975V6.8H64.0895V12.896L63.9295 14.4H64.0255L64.8095 12.848L68.9855 6.8H70.6175V18H68.4255V11.792ZM80.1378 17.536C79.7964 17.7813 79.3591 17.9573 78.8258 18.064C78.3031 18.1707 77.7644 18.224 77.2098 18.224C76.5378 18.224 75.8978 18.1227 75.2898 17.92C74.6924 17.7067 74.1644 17.3707 73.7057 16.912C73.2471 16.4427 72.8791 15.84 72.6018 15.104C72.3351 14.3573 72.2018 13.456 72.2018 12.4C72.2018 11.3013 72.3511 10.384 72.6497 9.648C72.9591 8.90133 73.3538 8.304 73.8338 7.856C74.3244 7.39733 74.8684 7.072 75.4658 6.88C76.0631 6.67733 76.6604 6.576 77.2578 6.576C77.8978 6.576 78.4364 6.61867 78.8738 6.704C79.3218 6.78933 79.6898 6.89067 79.9778 7.008L79.5458 8.864C79.3004 8.74667 79.0071 8.66133 78.6658 8.608C78.3351 8.55467 77.9298 8.528 77.4498 8.528C76.5644 8.528 75.8498 8.84267 75.3058 9.472C74.7724 10.1013 74.5058 11.0773 74.5058 12.4C74.5058 12.976 74.5698 13.504 74.6978 13.984C74.8258 14.4533 75.0178 14.8587 75.2738 15.2C75.5404 15.5307 75.8658 15.792 76.2498 15.984C76.6444 16.1653 77.0978 16.256 77.6098 16.256C78.0898 16.256 78.4951 16.208 78.8258 16.112C79.1564 16.016 79.4444 15.8933 79.6898 15.744L80.1378 17.536ZM88.7401 8.752H85.4761V18H83.2841V8.752H80.0041V6.8H88.7401V8.752ZM89.8819 6.8H96.5219V8.752H92.0739V11.36H96.1219V13.312H92.0739V16.048H96.6019V18H89.8819V6.8ZM106.929 12.192L107.169 9.968H107.073L106.385 11.76L104.001 15.936H103.297L100.785 11.744L100.081 9.968H100.001L100.321 12.176V18H98.2413V6.8H100.241L103.233 11.92L103.761 13.2H103.825L104.305 11.888L107.137 6.8H109.121V18H106.929V12.192ZM116.558 15.52H113.118L112.27 18H110.078L114.11 6.72H115.726L119.758 18H117.454L116.558 15.52ZM113.678 13.76H116.078L115.246 11.264L114.91 9.504H114.83L114.494 11.28L113.678 13.76ZM128.25 16.784C128.048 16.816 127.84 16.8373 127.626 16.848C127.413 16.8587 127.184 16.864 126.938 16.864C126.426 16.864 125.952 16.7787 125.514 16.608C125.077 16.4267 124.693 16.1547 124.362 15.792C124.042 15.4187 123.786 14.9547 123.594 14.4C123.413 13.8347 123.322 13.168 123.322 12.4C123.322 11.6747 123.413 11.0293 123.594 10.464C123.786 9.888 124.053 9.40267 124.394 9.008C124.746 8.60267 125.162 8.29333 125.642 8.08C126.122 7.86667 126.656 7.76 127.242 7.76C127.381 7.76 127.552 7.76533 127.754 7.776C127.957 7.78667 128.122 7.808 128.25 7.84V6.48H130.41V7.888C130.602 7.83467 130.826 7.80267 131.082 7.792C131.349 7.77067 131.568 7.76 131.738 7.76C132.25 7.76 132.725 7.856 133.162 8.048C133.6 8.22933 133.978 8.512 134.298 8.896C134.629 9.26933 134.885 9.73867 135.066 10.304C135.248 10.8587 135.338 11.504 135.338 12.24C135.338 12.9973 135.237 13.664 135.034 14.24C134.832 14.816 134.554 15.3013 134.202 15.696C133.85 16.08 133.44 16.3733 132.97 16.576C132.512 16.768 132.021 16.864 131.498 16.864C131.317 16.864 131.125 16.8587 130.922 16.848C130.73 16.8267 130.56 16.7947 130.41 16.752V18.32H128.25V16.784ZM131.226 9.536C131.109 9.536 130.96 9.54133 130.778 9.552C130.597 9.56267 130.448 9.584 130.33 9.616V15.056C130.416 15.0773 130.522 15.088 130.65 15.088C130.789 15.088 130.922 15.088 131.05 15.088C131.338 15.088 131.61 15.0347 131.866 14.928C132.122 14.8213 132.346 14.6507 132.538 14.416C132.73 14.1813 132.88 13.888 132.986 13.536C133.093 13.184 133.146 12.7573 133.146 12.256C133.146 11.4027 132.976 10.736 132.634 10.256C132.293 9.776 131.824 9.536 131.226 9.536ZM127.498 15.088C127.584 15.088 127.712 15.088 127.882 15.088C128.064 15.0773 128.213 15.0507 128.33 15.008V9.584C128.224 9.56267 128.101 9.552 127.962 9.552C127.824 9.54133 127.696 9.536 127.578 9.536C126.992 9.536 126.501 9.76533 126.106 10.224C125.712 10.672 125.514 11.392 125.514 12.384C125.514 13.248 125.696 13.9147 126.058 14.384C126.421 14.8533 126.901 15.088 127.498 15.088ZM136.358 12.4C136.358 10.5333 136.769 9.09867 137.59 8.096C138.411 7.08267 139.585 6.576 141.11 6.576C141.91 6.576 142.609 6.71467 143.206 6.992C143.803 7.26933 144.299 7.664 144.694 8.176C145.089 8.688 145.382 9.30133 145.574 10.016C145.766 10.7307 145.862 11.5253 145.862 12.4C145.862 14.2667 145.446 15.7067 144.614 16.72C143.793 17.7227 142.625 18.224 141.11 18.224C140.299 18.224 139.595 18.0853 138.998 17.808C138.401 17.5307 137.905 17.136 137.51 16.624C137.126 16.112 136.838 15.4987 136.646 14.784C136.454 14.0693 136.358 13.2747 136.358 12.4ZM138.662 12.4C138.662 12.9653 138.71 13.488 138.806 13.968C138.902 14.4373 139.046 14.8427 139.238 15.184C139.441 15.5253 139.697 15.792 140.006 15.984C140.315 16.176 140.683 16.272 141.11 16.272C141.889 16.272 142.491 15.968 142.918 15.36C143.345 14.752 143.558 13.7653 143.558 12.4C143.558 11.856 143.51 11.3493 143.414 10.88C143.329 10.4107 143.19 10 142.998 9.648C142.806 9.296 142.555 9.024 142.246 8.832C141.937 8.62933 141.558 8.528 141.11 8.528C140.331 8.528 139.729 8.84267 139.302 9.472C138.875 10.0907 138.662 11.0667 138.662 12.4ZM147.429 6.912C147.877 6.82667 148.367 6.76267 148.901 6.72C149.445 6.66667 149.983 6.64 150.517 6.64C151.071 6.64 151.626 6.688 152.181 6.784C152.746 6.86933 153.253 7.05067 153.701 7.328C154.149 7.59467 154.511 7.97333 154.789 8.464C155.077 8.944 155.221 9.57333 155.221 10.352C155.221 11.056 155.098 11.6533 154.853 12.144C154.607 12.624 154.282 13.0187 153.877 13.328C153.471 13.6373 153.007 13.8613 152.485 14C151.973 14.1387 151.439 14.208 150.885 14.208C150.831 14.208 150.746 14.208 150.629 14.208C150.511 14.208 150.389 14.208 150.261 14.208C150.133 14.1973 150.005 14.1867 149.877 14.176C149.759 14.1653 149.674 14.1547 149.621 14.144V18H147.429V6.912ZM150.693 8.528C150.479 8.528 150.277 8.53867 150.085 8.56C149.893 8.57067 149.738 8.58667 149.621 8.608V12.24C149.663 12.2507 149.727 12.2613 149.813 12.272C149.898 12.2827 149.989 12.2933 150.085 12.304C150.181 12.304 150.271 12.304 150.357 12.304C150.453 12.304 150.522 12.304 150.565 12.304C150.853 12.304 151.135 12.2773 151.413 12.224C151.701 12.1707 151.957 12.0747 152.181 11.936C152.405 11.7867 152.581 11.584 152.709 11.328C152.847 11.072 152.917 10.736 152.917 10.32C152.917 9.968 152.853 9.68 152.725 9.456C152.597 9.22133 152.426 9.03467 152.213 8.896C152.01 8.75733 151.775 8.66133 151.509 8.608C151.242 8.55467 150.97 8.528 150.693 8.528ZM165.273 12.192L165.513 9.968H165.417L164.729 11.76L162.345 15.936H161.641L159.129 11.744L158.425 9.968H158.345L158.665 12.176V18H156.585V6.8H158.585L161.577 11.92L162.105 13.2H162.169L162.649 11.888L165.481 6.8H167.465V18H165.273V12.192ZM175.91 11.792L176.038 10.336H175.958L175.206 11.84L171.03 18H169.382V6.8H171.574V12.896L171.414 14.4H171.51L172.294 12.848L176.47 6.8H178.102V18H175.91V11.792ZM180.038 6.912C180.486 6.82667 180.977 6.76267 181.51 6.72C182.054 6.66667 182.593 6.64 183.126 6.64C183.681 6.64 184.235 6.688 184.79 6.784C185.355 6.86933 185.862 7.05067 186.31 7.328C186.758 7.59467 187.121 7.97333 187.398 8.464C187.686 8.944 187.83 9.57333 187.83 10.352C187.83 11.056 187.707 11.6533 187.462 12.144C187.217 12.624 186.891 13.0187 186.486 13.328C186.081 13.6373 185.617 13.8613 185.094 14C184.582 14.1387 184.049 14.208 183.494 14.208C183.441 14.208 183.355 14.208 183.238 14.208C183.121 14.208 182.998 14.208 182.87 14.208C182.742 14.1973 182.614 14.1867 182.486 14.176C182.369 14.1653 182.283 14.1547 182.23 14.144V18H180.038V6.912ZM183.302 8.528C183.089 8.528 182.886 8.53867 182.694 8.56C182.502 8.57067 182.347 8.58667 182.23 8.608V12.24C182.273 12.2507 182.337 12.2613 182.422 12.272C182.507 12.2827 182.598 12.2933 182.694 12.304C182.79 12.304 182.881 12.304 182.966 12.304C183.062 12.304 183.131 12.304 183.174 12.304C183.462 12.304 183.745 12.2773 184.022 12.224C184.31 12.1707 184.566 12.0747 184.79 11.936C185.014 11.7867 185.19 11.584 185.318 11.328C185.457 11.072 185.526 10.736 185.526 10.32C185.526 9.968 185.462 9.68 185.334 9.456C185.206 9.22133 185.035 9.03467 184.822 8.896C184.619 8.75733 184.385 8.66133 184.118 8.608C183.851 8.55467 183.579 8.528 183.302 8.528ZM188.671 12.4C188.671 10.5333 189.081 9.09867 189.903 8.096C190.724 7.08267 191.897 6.576 193.423 6.576C194.223 6.576 194.921 6.71467 195.519 6.992C196.116 7.26933 196.612 7.664 197.007 8.176C197.401 8.688 197.695 9.30133 197.887 10.016C198.079 10.7307 198.175 11.5253 198.175 12.4C198.175 14.2667 197.759 15.7067 196.927 16.72C196.105 17.7227 194.937 18.224 193.423 18.224C192.612 18.224 191.908 18.0853 191.311 17.808C190.713 17.5307 190.217 17.136 189.823 16.624C189.439 16.112 189.151 15.4987 188.959 14.784C188.767 14.0693 188.671 13.2747 188.671 12.4ZM190.975 12.4C190.975 12.9653 191.023 13.488 191.119 13.968C191.215 14.4373 191.359 14.8427 191.551 15.184C191.753 15.5253 192.009 15.792 192.319 15.984C192.628 16.176 192.996 16.272 193.423 16.272C194.201 16.272 194.804 15.968 195.231 15.36C195.657 14.752 195.871 13.7653 195.871 12.4C195.871 11.856 195.823 11.3493 195.727 10.88C195.641 10.4107 195.503 10 195.311 9.648C195.119 9.296 194.868 9.024 194.559 8.832C194.249 8.62933 193.871 8.528 193.423 8.528C192.644 8.528 192.041 8.84267 191.615 9.472C191.188 10.0907 190.975 11.0667 190.975 12.4ZM207.277 9.408C207.277 9.68533 207.24 9.96267 207.165 10.24C207.101 10.5173 206.989 10.7733 206.829 11.008C206.669 11.232 206.461 11.4347 206.205 11.616C205.949 11.7867 205.64 11.9147 205.277 12V12.096C205.597 12.1493 205.901 12.24 206.189 12.368C206.477 12.496 206.728 12.672 206.941 12.896C207.155 13.12 207.32 13.392 207.437 13.712C207.565 14.032 207.629 14.4107 207.629 14.848C207.629 15.424 207.507 15.9253 207.261 16.352C207.016 16.768 206.685 17.1093 206.269 17.376C205.864 17.6427 205.4 17.84 204.877 17.968C204.355 18.096 203.816 18.16 203.261 18.16C203.08 18.16 202.845 18.16 202.557 18.16C202.28 18.16 201.976 18.1493 201.645 18.128C201.325 18.1173 200.995 18.096 200.653 18.064C200.323 18.032 200.019 17.984 199.741 17.92V6.88C199.944 6.848 200.173 6.816 200.429 6.784C200.696 6.752 200.979 6.72533 201.277 6.704C201.576 6.68267 201.88 6.66667 202.189 6.656C202.509 6.64533 202.824 6.64 203.133 6.64C203.656 6.64 204.163 6.68267 204.653 6.768C205.155 6.84267 205.597 6.98133 205.981 7.184C206.376 7.38667 206.691 7.66933 206.925 8.032C207.16 8.39467 207.277 8.85333 207.277 9.408ZM203.277 16.352C203.544 16.352 203.8 16.32 204.045 16.256C204.301 16.192 204.525 16.096 204.717 15.968C204.909 15.8293 205.064 15.6587 205.181 15.456C205.299 15.2533 205.357 15.0133 205.357 14.736C205.357 14.384 205.288 14.1067 205.149 13.904C205.011 13.7013 204.829 13.5467 204.605 13.44C204.381 13.3227 204.131 13.248 203.853 13.216C203.576 13.184 203.299 13.168 203.021 13.168H201.853V16.256C201.907 16.2773 201.992 16.2933 202.109 16.304C202.227 16.3147 202.349 16.3253 202.477 16.336C202.616 16.336 202.755 16.3413 202.893 16.352C203.043 16.352 203.171 16.352 203.277 16.352ZM202.557 11.504C202.707 11.504 202.877 11.4987 203.069 11.488C203.272 11.4773 203.437 11.4613 203.565 11.44C203.971 11.312 204.317 11.12 204.605 10.864C204.904 10.608 205.053 10.272 205.053 9.856C205.053 9.57867 205 9.34933 204.893 9.168C204.787 8.98667 204.643 8.84267 204.461 8.736C204.291 8.62933 204.093 8.55467 203.869 8.512C203.645 8.46933 203.411 8.448 203.165 8.448C202.888 8.448 202.632 8.45333 202.397 8.464C202.163 8.47467 201.981 8.49067 201.853 8.512V11.504H202.557ZM214.714 15.52H211.274L210.426 18H208.234L212.266 6.72H213.882L217.914 18H215.61L214.714 15.52ZM211.834 13.76H214.234L213.402 11.264L213.066 9.504H212.986L212.65 11.28L211.834 13.76ZM225.17 13.312H221.074V18H218.882V6.8H221.074V11.36H225.17V6.8H227.362V18H225.17V13.312ZM235.832 11.792L235.96 10.336H235.88L235.128 11.84L230.952 18H229.304V6.8H231.496V12.896L231.336 14.4H231.432L232.216 12.848L236.392 6.8H238.024V18H235.832V11.792ZM247.304 18H245.112V13.568L243.96 13.872L241.624 18H239.08L241.384 14.272L242.344 13.584C242.003 13.4987 241.683 13.3707 241.384 13.2C241.085 13.0187 240.824 12.7893 240.6 12.512C240.376 12.2347 240.2 11.9093 240.072 11.536C239.944 11.152 239.88 10.72 239.88 10.24C239.88 9.568 239.997 9.00267 240.232 8.544C240.467 8.08533 240.792 7.71733 241.208 7.44C241.624 7.152 242.12 6.94933 242.696 6.832C243.272 6.704 243.896 6.64 244.568 6.64C244.749 6.64 244.957 6.64533 245.192 6.656C245.427 6.66667 245.667 6.68267 245.912 6.704C246.168 6.72533 246.413 6.752 246.648 6.784C246.893 6.816 247.112 6.85867 247.304 6.912V18ZM244.296 8.592C244.008 8.592 243.736 8.61867 243.48 8.672C243.224 8.72533 243 8.816 242.808 8.944C242.616 9.072 242.461 9.248 242.344 9.472C242.237 9.696 242.184 9.984 242.184 10.336C242.184 10.6667 242.237 10.9493 242.344 11.184C242.451 11.408 242.6 11.5947 242.792 11.744C242.984 11.8827 243.208 11.984 243.464 12.048C243.72 12.112 243.997 12.144 244.296 12.144H245.112V8.672C244.995 8.65067 244.872 8.63467 244.744 8.624C244.627 8.60267 244.477 8.592 244.296 8.592ZM60.912 29.752H57.648V39H55.456V29.752H52.176V27.8H60.912V29.752ZM62.0538 27.8H68.6938V29.752H64.2458V32.36H68.2938V34.312H64.2458V37.048H68.7738V39H62.0538V27.8ZM73.0531 33.304L69.9331 27.8H72.5731L74.3011 31.032L74.6851 32.168L75.0531 31.032L76.8611 27.8H79.2451L76.0131 33.192L79.4051 39H76.7971L74.8291 35.544L74.3971 34.36L73.9811 35.544L71.9971 39H69.6131L73.0531 33.304ZM86.8261 34.312H82.7301V39H80.5381V27.8H82.7301V32.36H86.8261V27.8H89.0181V39H86.8261V34.312ZM97.488 32.792L97.616 31.336H97.536L96.784 32.84L92.608 39H90.96V27.8H93.152V33.896L92.992 35.4H93.088L93.872 33.848L98.048 27.8H99.68V39H97.488V32.792ZM103.584 27.8V31.352C103.584 31.992 103.707 32.472 103.952 32.792C104.208 33.1013 104.624 33.256 105.2 33.256C105.606 33.256 105.984 33.2133 106.336 33.128C106.699 33.032 106.987 32.8933 107.2 32.712V27.8H109.392V39H107.2V34.488C106.923 34.648 106.55 34.7973 106.08 34.936C105.622 35.064 105.072 35.128 104.432 35.128C103.984 35.128 103.574 35.0747 103.2 34.968C102.838 34.8507 102.518 34.6693 102.24 34.424C101.974 34.168 101.766 33.848 101.616 33.464C101.467 33.0693 101.392 32.5947 101.392 32.04V27.8H103.584ZM111.319 27.8H117.959V29.752H113.511V32.36H117.559V34.312H113.511V37.048H118.039V39H111.319V27.8ZM127.263 38.536C126.921 38.7813 126.484 38.9573 125.951 39.064C125.428 39.1707 124.889 39.224 124.335 39.224C123.663 39.224 123.023 39.1227 122.415 38.92C121.817 38.7067 121.289 38.3707 120.831 37.912C120.372 37.4427 120.004 36.84 119.727 36.104C119.46 35.3573 119.327 34.456 119.327 33.4C119.327 32.3013 119.476 31.384 119.775 30.648C120.084 29.9013 120.479 29.304 120.959 28.856C121.449 28.3973 121.993 28.072 122.591 27.88C123.188 27.6773 123.785 27.576 124.383 27.576C125.023 27.576 125.561 27.6187 125.999 27.704C126.447 27.7893 126.815 27.8907 127.103 28.008L126.671 29.864C126.425 29.7467 126.132 29.6613 125.791 29.608C125.46 29.5547 125.055 29.528 124.575 29.528C123.689 29.528 122.975 29.8427 122.431 30.472C121.897 31.1013 121.631 32.0773 121.631 33.4C121.631 33.976 121.695 34.504 121.823 34.984C121.951 35.4533 122.143 35.8587 122.399 36.2C122.665 36.5307 122.991 36.792 123.375 36.984C123.769 37.1653 124.223 37.256 124.735 37.256C125.215 37.256 125.62 37.208 125.951 37.112C126.281 37.016 126.569 36.8933 126.815 36.744L127.263 38.536ZM131.384 34.216H130.808V39H128.616V27.8H130.808V32.76L131.32 32.536L134.408 27.8H136.904L133.64 32.504L132.776 33.112L133.672 33.736L137.4 39H134.696L131.384 34.216ZM145.066 32.792L145.194 31.336H145.114L144.362 32.84L140.186 39H138.538V27.8H140.73V33.896L140.57 35.4H140.666L141.45 33.848L145.626 27.8H147.258V39H145.066V32.792ZM151.834 33.304L148.714 27.8H151.354L153.082 31.032L153.466 32.168L153.834 31.032L155.642 27.8H158.026L154.794 33.192L158.186 39H155.578L153.61 35.544L153.178 34.36L152.762 35.544L150.778 39H148.394L151.834 33.304ZM164.123 34.04V32.328H164.507C164.603 32.328 164.72 32.328 164.859 32.328C164.998 32.328 165.136 32.328 165.275 32.328C165.424 32.3173 165.568 32.3067 165.707 32.296C165.846 32.2747 165.958 32.2533 166.043 32.232C166.416 32.1467 166.736 31.9973 167.003 31.784C167.27 31.56 167.403 31.2613 167.403 30.888C167.403 30.376 167.238 30.0293 166.907 29.848C166.587 29.656 166.16 29.56 165.627 29.56C165.147 29.56 164.699 29.624 164.283 29.752C163.867 29.88 163.552 30.0027 163.339 30.12L162.779 28.264C162.896 28.2 163.062 28.1307 163.275 28.056C163.499 27.9813 163.75 27.912 164.027 27.848C164.315 27.7733 164.624 27.7147 164.955 27.672C165.286 27.6293 165.622 27.608 165.963 27.608C166.432 27.608 166.891 27.6507 167.339 27.736C167.787 27.8213 168.187 27.9707 168.539 28.184C168.891 28.3973 169.174 28.6853 169.387 29.048C169.6 29.4 169.707 29.8533 169.707 30.408C169.707 30.9627 169.558 31.4747 169.259 31.944C168.971 32.4133 168.502 32.7547 167.851 32.968V33.048C168.544 33.1867 169.083 33.4853 169.467 33.944C169.862 34.4027 170.059 35.016 170.059 35.784C170.059 36.392 169.936 36.9147 169.691 37.352C169.446 37.7787 169.12 38.1307 168.715 38.408C168.32 38.6853 167.862 38.888 167.339 39.016C166.816 39.1547 166.283 39.224 165.739 39.224C165.035 39.224 164.395 39.1653 163.819 39.048C163.243 38.9307 162.8 38.792 162.491 38.632L163.051 36.728C163.296 36.8453 163.648 36.968 164.107 37.096C164.566 37.2133 165.11 37.272 165.739 37.272C165.974 37.272 166.208 37.2453 166.443 37.192C166.688 37.128 166.907 37.032 167.099 36.904C167.291 36.7653 167.446 36.5893 167.563 36.376C167.68 36.1627 167.739 35.9067 167.739 35.608C167.739 35.1067 167.552 34.728 167.179 34.472C166.806 34.216 166.139 34.0773 165.179 34.056C165.051 34.0453 164.955 34.04 164.891 34.04C164.827 34.04 164.715 34.04 164.555 34.04H164.123ZM177.105 36.52H173.665L172.817 39H170.625L174.657 27.72H176.273L180.305 39H178.001L177.105 36.52ZM174.225 34.76H176.625L175.793 32.264L175.457 30.504H175.377L175.041 32.28L174.225 34.76ZM190.675 41H189.123L188.883 39H181.683L181.443 41H179.891V37.048H181.075C181.149 36.9307 181.272 36.6693 181.443 36.264C181.613 35.8587 181.784 35.288 181.955 34.552C182.125 33.8053 182.269 32.8773 182.387 31.768C182.504 30.648 182.557 29.3253 182.547 27.8H189.251V37.048H190.675V41ZM187.059 37.048V29.752H184.579C184.515 31.6507 184.36 33.208 184.115 34.424C183.88 35.6293 183.64 36.504 183.395 37.048H187.059ZM197.433 36.52H193.993L193.145 39H190.953L194.985 27.72H196.601L200.633 39H198.329L197.433 36.52ZM194.553 34.76H196.953L196.121 32.264L195.785 30.504H195.705L195.369 32.28L194.553 34.76ZM207.889 34.312H203.793V39H201.601V27.8H203.793V32.36H207.889V27.8H210.081V39H207.889V34.312ZM218.551 32.792L218.679 31.336H218.599L217.847 32.84L213.671 39H212.023V27.8H214.215V33.896L214.055 35.4H214.151L214.935 33.848L219.111 27.8H220.743V39H218.551V32.792ZM229.207 32.792L229.335 31.336H229.255L228.503 32.84L224.327 39H222.679V27.8H224.871V33.896L224.711 35.4H224.807L225.591 33.848L229.767 27.8H231.399V39H229.207V32.792ZM226.087 25.016C226.129 25.3573 226.252 25.6027 226.455 25.752C226.668 25.9013 226.94 25.976 227.271 25.976C227.985 25.976 228.38 25.6613 228.455 25.032L230.231 25.304C230.113 25.976 229.804 26.4667 229.303 26.776C228.812 27.0853 228.129 27.24 227.255 27.24C226.817 27.24 226.417 27.208 226.055 27.144C225.692 27.08 225.372 26.9787 225.095 26.84C224.828 26.6907 224.604 26.4933 224.423 26.248C224.252 26.0027 224.145 25.6987 224.103 25.336L226.087 25.016Z" fill="#631AC0"/>
</svg>
