<svg width="16" height="17" viewBox="0 0 16 17" fill="none" xmlns="http://www.w3.org/2000/svg">
<path fill-rule="evenodd" clip-rule="evenodd" d="M8 2.41982C11.5346 2.41982 14.4 5.28521 14.4 8.81982C14.4 12.3544 11.5346 15.2198 8 15.2198C6.23245 15.2198 4.63355 14.5044 3.47453 13.3453C3.16212 13.0329 2.65559 13.0329 2.34316 13.3453C2.03074 13.6577 2.03073 14.1642 2.34315 14.4767C3.78997 15.9235 5.79107 16.8198 8 16.8198C12.4183 16.8198 16 13.2381 16 8.81982C16 4.40156 12.4183 0.819824 8 0.819824C5.79107 0.819824 3.78997 1.71613 2.34315 3.16299C2.1414 3.36474 1.87479 3.64721 1.6 3.94421V2.41982C1.6 1.978 1.24183 1.61982 0.8 1.61982C0.358172 1.61982 0 1.978 0 2.41982V6.01982C0 6.46165 0.358172 6.81982 0.8 6.81982L4.4 6.81982C4.84183 6.81982 5.2 6.46165 5.2 6.01982C5.2 5.578 4.84183 5.21982 4.4 5.21982H2.60024C2.92804 4.86291 3.25108 4.51779 3.47452 4.29435L3.47453 4.29434C4.63355 3.13529 6.23245 2.41982 8 2.41982Z" fill="#2F80ED"/>
</svg>
