<svg width="16" height="18" viewBox="0 0 16 18" fill="none" xmlns="http://www.w3.org/2000/svg">
<path fill-rule="evenodd" clip-rule="evenodd" d="M4.66667 0.666687C5.1269 0.666687 5.5 1.03978 5.5 1.50002V2.33335H10.5V1.50002C10.5 1.03978 10.8731 0.666687 11.3333 0.666687C11.7936 0.666687 12.1667 1.03978 12.1667 1.50002V2.33335H13C14.3807 2.33335 15.5 3.45264 15.5 4.83335V14.8334C15.5 16.2141 14.3807 17.3334 13 17.3334H3C1.61929 17.3334 0.5 16.2141 0.5 14.8334V4.83335C0.5 3.45264 1.61929 2.33335 3 2.33335H3.83333V1.50002C3.83333 1.03978 4.20643 0.666687 4.66667 0.666687ZM3.83333 4.00002H3C2.53976 4.00002 2.16667 4.37312 2.16667 4.83335V6.50002H13.8333V4.83335C13.8333 4.37312 13.4602 4.00002 13 4.00002H12.1667V4.83335C12.1667 5.29359 11.7936 5.66669 11.3333 5.66669C10.8731 5.66669 10.5 5.29359 10.5 4.83335V4.00002H5.5V4.83335C5.5 5.29359 5.1269 5.66669 4.66667 5.66669C4.20643 5.66669 3.83333 5.29359 3.83333 4.83335V4.00002ZM13.8333 8.16669H2.16667V14.8334C2.16667 15.2936 2.53976 15.6667 3 15.6667H13C13.4602 15.6667 13.8333 15.2936 13.8333 14.8334V8.16669Z" fill="#2F80ED"/>
</svg>
