<svg width="24" height="24" viewBox="0 0 24 24" fill="none" xmlns="http://www.w3.org/2000/svg">
<path fill-rule="evenodd" clip-rule="evenodd" d="M8 12C8 9.79085 9.79085 8 12 8C14.2091 8 16 9.79085 16 12C16 14.2091 14.2091 16 12 16C9.79085 16 8 14.2091 8 12ZM12 9.6C10.6745 9.6 9.6 10.6745 9.6 12C9.6 13.3255 10.6745 14.4 12 14.4C13.3255 14.4 14.4 13.3255 14.4 12C14.4 10.6745 13.3255 9.6 12 9.6Z" fill="white"/>
<path d="M17.2 7.6C17.2 8.04184 16.8418 8.4 16.4 8.4C15.9582 8.4 15.6 8.04184 15.6 7.6C15.6 7.15816 15.9582 6.8 16.4 6.8C16.8418 6.8 17.2 7.15816 17.2 7.6Z" fill="white"/>
<path fill-rule="evenodd" clip-rule="evenodd" d="M4 8C4 5.79086 5.79086 4 8 4H16C18.2091 4 20 5.79086 20 8V16C20 18.2091 18.2091 20 16 20H8C5.79086 20 4 18.2091 4 16V8ZM8 5.6C6.67452 5.6 5.6 6.67452 5.6 8V16C5.6 17.3255 6.67451 18.4 8 18.4H16C17.3255 18.4 18.4 17.3255 18.4 16V8C18.4 6.67451 17.3255 5.6 16 5.6H8Z" fill="white"/>
</svg>
