<svg width="24" height="24" viewBox="0 0 24 24" fill="none" xmlns="http://www.w3.org/2000/svg">
<path d="M12 13C11.4067 13 10.8266 12.8241 10.3333 12.4944C9.83994 12.1648 9.45543 11.6962 9.22836 11.1481C9.0013 10.5999 8.94189 9.99667 9.05765 9.41473C9.1734 8.83279 9.45912 8.29824 9.87868 7.87868C10.2982 7.45912 10.8328 7.1734 11.4147 7.05765C11.9967 6.94189 12.5999 7.0013 13.1481 7.22836C13.6962 7.45543 14.1648 7.83994 14.4944 8.33329C14.8241 8.82664 15 9.40666 15 10C14.999 10.7954 14.6827 11.5579 14.1203 12.1203C13.5579 12.6827 12.7954 12.999 12 13ZM12 8.2C11.644 8.2 11.296 8.30557 11 8.50336C10.704 8.70114 10.4733 8.98226 10.337 9.31117C10.2008 9.64008 10.1651 10.002 10.2346 10.3512C10.304 10.7003 10.4755 11.0211 10.7272 11.2728C10.9789 11.5245 11.2997 11.696 11.6488 11.7654C11.998 11.8349 12.3599 11.7992 12.6888 11.663C13.0177 11.5267 13.2989 11.296 13.4966 11C13.6944 10.704 13.8 10.356 13.8 10C13.7995 9.52276 13.6097 9.0652 13.2723 8.72774C12.9348 8.39027 12.4772 8.20048 12 8.2Z" fill="white"/>
<path d="M12 20L7.39855 14.3149C7.33461 14.2295 7.27134 14.1436 7.20873 14.0571C6.42272 12.9724 5.9981 11.6476 6.00001 10.2857C6.00001 8.61864 6.63215 7.01984 7.75736 5.84104C8.88258 4.66224 10.4087 4 12 4C13.5913 4 15.1174 4.66224 16.2426 5.84104C17.3679 7.01984 18 8.61864 18 10.2857C18.0019 11.6469 17.5775 12.9712 16.7918 14.0554L16.7913 14.0571C16.7913 14.0571 16.6276 14.2823 16.6031 14.3126L12 20ZM8.07928 13.3686C8.08037 13.3686 8.20691 13.5446 8.23582 13.5823L12 18.2331L15.7691 13.576C15.7931 13.5446 15.9207 13.3674 15.9213 13.3669C16.5633 12.4806 16.9103 11.3983 16.9091 10.2857C16.9091 8.92174 16.3919 7.61364 15.4712 6.64917C14.5506 5.68469 13.302 5.14286 12 5.14286C10.698 5.14286 9.44938 5.68469 8.52875 6.64917C7.60812 7.61364 7.09091 8.92174 7.09091 10.2857C7.08977 11.399 7.43716 12.4819 8.07982 13.3686H8.07928Z" fill="white"/>
</svg>
