<svg width="16" height="13" viewBox="0 0 16 13" fill="none" xmlns="http://www.w3.org/2000/svg">
<path d="M15.2727 0C15.3808 0.00217932 15.4833 0.0219355 15.5857 0.0706319C15.6914 0.121138 15.7843 0.197235 15.8545 0.290909C15.9006 0.359558 15.8898 0.338958 15.8545 0.290909C15.9487 0.416511 16 0.570308 16 0.727273C15.9997 0.688534 15.9981 0.671721 16 0.727273V11.6364C16 12.038 15.6744 12.3636 15.2727 12.3636H0.727273C0.325611 12.3636 0 12.038 0 11.6364V0.727273C0 0.597071 0.0353212 0.467787 0.101763 0.356123C0.237159 0.127985 0.471677 0.00515311 0.727273 0H15.2727ZM14.5455 2.18182L8.43636 6.76364C8.20364 6.93818 7.89236 6.95564 7.64393 6.816L7.56364 6.76364L1.45455 2.18182V10.9091H14.5455V2.18182ZM2.90909 1.45455L8 5.27273L13.0909 1.45455H2.90909Z" fill="white"/>
</svg>
