<svg width="48" height="48" viewBox="0 0 48 48" fill="none" xmlns="http://www.w3.org/2000/svg">
<path d="M18.8364 1.01817C18.8364 1.01817 27.7092 7.41817 42.1092 0.290894C42.1092 9.16362 42.1092 36.2182 42.1092 36.2182C42.1092 36.2182 31.0546 42.4727 18.8364 35.6363C18.8364 23.1273 18.8364 1.01817 18.8364 1.01817Z" fill="white" fill-opacity="0.8"/>
<path opacity="0.8" d="M12.3635 0.654541C12.3635 0.654541 15.6363 12.0727 35.7817 7.92727C35.7817 20.6545 35.7817 42.1091 35.7817 42.1091C35.7817 42.1091 18.3272 46.3273 12.3635 35.2727C12.3635 22.9091 12.3635 0.654541 12.3635 0.654541Z" fill="white" fill-opacity="0.6"/>
<path opacity="0.8" d="M5.96362 1.23633C5.96362 1.23633 8.43635 15.4909 29.3818 15.3454C29.3818 28 29.3818 47.6363 29.3818 47.6363C29.3818 47.6363 10.1818 49.0909 5.96362 33.6727C5.96362 18.4 5.96362 1.23633 5.96362 1.23633Z" fill="white" fill-opacity="0.4"/>
</svg>
