<svg width="24" height="24" viewBox="0 0 24 24" fill="none" xmlns="http://www.w3.org/2000/svg">
<path d="M17 10H15.8C15.7995 9.52276 15.6097 9.0652 15.2723 8.72773C14.9348 8.39027 14.4772 8.20048 14 8.2V7C14.7954 7.00095 15.5579 7.31733 16.1203 7.87973C16.6827 8.44213 16.999 9.20464 17 10Z" fill="white"/>
<path d="M19 10H17.8889C17.8877 8.96896 17.4776 7.98049 16.7486 7.25144C16.0195 6.52239 15.031 6.11229 14 6.11111V5C15.3256 5.00147 16.5965 5.52873 17.5339 6.46609C18.4713 7.40345 18.9985 8.67437 19 10Z" fill="white"/>
<path d="M18.1544 20H18.0499C5.96168 19.3046 4.24535 9.10154 4.00543 5.98769C3.96793 5.49954 4.12581 5.01647 4.44433 4.64475C4.76286 4.27303 5.21594 4.0431 5.70393 4.00554C5.75273 4.00185 5.80174 4 5.85095 4H9.09292C9.33934 3.99976 9.58014 4.07355 9.78415 4.21179C9.98816 4.35004 10.146 4.54638 10.2371 4.77539L11.1722 7.07692C11.2622 7.30064 11.2846 7.5459 11.2365 7.78221C11.1883 8.01853 11.0719 8.23549 10.9015 8.40615L9.59121 9.72923C9.79506 10.8931 10.3518 11.9661 11.186 12.8028C12.0201 13.6394 13.0913 14.1992 14.2542 14.4062L15.5892 13.0831C15.7623 12.9146 15.9813 12.8008 16.2187 12.7559C16.4561 12.711 16.7014 12.7371 16.9241 12.8308L19.2433 13.76C19.4688 13.8541 19.6611 14.0132 19.7959 14.217C19.9307 14.4209 20.0017 14.6602 20 14.9046V18.1538C20 18.6435 19.8055 19.1131 19.4594 19.4593C19.1133 19.8055 18.6439 20 18.1544 20ZM5.85095 5.23077C5.77017 5.23053 5.69012 5.2462 5.61539 5.27691C5.54067 5.30761 5.47271 5.35273 5.41542 5.40971C5.35812 5.46668 5.3126 5.53438 5.28147 5.60895C5.25033 5.68352 5.23417 5.76349 5.23393 5.84431C5.23393 5.86154 5.23455 5.87856 5.23578 5.89539C5.51876 9.53846 7.33352 18.1538 18.1175 18.7692C18.2804 18.779 18.4404 18.7237 18.5624 18.6154C18.6845 18.5072 18.7586 18.3549 18.7684 18.192L18.7696 18.1538V14.9046L16.4504 13.9754L14.6849 15.7292L14.3896 15.6923C9.03756 15.0215 8.31165 9.66769 8.31165 9.61231L8.27474 9.31692L10.0218 7.55077L9.09907 5.23077H5.85095Z" fill="white"/>
</svg>
