<svg width="17" height="17" viewBox="0 0 17 17" fill="none" xmlns="http://www.w3.org/2000/svg">
<path fill-rule="evenodd" clip-rule="evenodd" d="M2 7C2 4.23858 4.23858 2 7 2C9.76142 2 12 4.23858 12 7C12 9.76142 9.76142 12 7 12C4.23858 12 2 9.76142 2 7ZM7 0C3.13401 0 0 3.13401 0 7C0 10.866 3.13401 14 7 14C8.57234 14 10.0236 13.4816 11.1922 12.6064L15.2929 16.7071C15.6834 17.0976 16.3166 17.0976 16.7071 16.7071C17.0976 16.3166 17.0976 15.6834 16.7071 15.2929L12.6064 11.1922C13.4816 10.0236 14 8.57234 14 7C14 3.13401 10.866 0 7 0Z" fill="#222222" fill-opacity="0.4"/>
</svg>
