<svg width="18" height="20" viewBox="0 0 18 20" fill="none" xmlns="http://www.w3.org/2000/svg">
<path fill-rule="evenodd" clip-rule="evenodd" d="M5 0C5.55228 0 6 0.447715 6 1V2H12V1C12 0.447715 12.4477 0 13 0C13.5523 0 14 0.447715 14 1V2H15C16.6569 2 18 3.34315 18 5V17C18 18.6569 16.6569 20 15 20H3C1.34315 20 0 18.6569 0 17V5C0 3.34315 1.34315 2 3 2H4V1C4 0.447715 4.44772 0 5 0ZM4 4H3C2.44772 4 2 4.44772 2 5V7H16V5C16 4.44772 15.5523 4 15 4H14V5C14 5.55228 13.5523 6 13 6C12.4477 6 12 5.55228 12 5V4H6V5C6 5.55228 5.55228 6 5 6C4.44772 6 4 5.55228 4 5V4ZM16 9H2V17C2 17.5523 2.44772 18 3 18H15C15.5523 18 16 17.5523 16 17V9Z" fill="#2F80ED"/>
</svg>
